<mxfile host="app.diagrams.net" agent="Mozilla/5.0 (Windows NT 10.0; Win64; x64) AppleWebKit/537.36 (KHTML, like Gecko) Chrome/137.0.0.0 Safari/537.36" version="27.1.4">
  <diagram name="Страница — 1" id="dqDWMR-KbDqhePptvrCt">
    <mxGraphModel dx="1426" dy="-408" grid="1" gridSize="10" guides="1" tooltips="1" connect="1" arrows="1" fold="1" page="1" pageScale="1" pageWidth="827" pageHeight="1169" math="0" shadow="0">
      <root>
        <mxCell id="0" />
        <mxCell id="1" parent="0" />
        <mxCell id="J2W_DL_MIdQ7LMWqJL3--67" style="edgeStyle=orthogonalEdgeStyle;rounded=0;orthogonalLoop=1;jettySize=auto;html=1;exitX=0.5;exitY=1;exitDx=0;exitDy=0;entryX=0.5;entryY=0;entryDx=0;entryDy=0;" edge="1" parent="1" source="J2W_DL_MIdQ7LMWqJL3--4" target="J2W_DL_MIdQ7LMWqJL3--8">
          <mxGeometry relative="1" as="geometry" />
        </mxCell>
        <mxCell id="J2W_DL_MIdQ7LMWqJL3--4" value="&lt;b&gt;БД банковской системы&lt;/b&gt;" style="html=1;dropTarget=0;whiteSpace=wrap;" vertex="1" parent="1">
          <mxGeometry x="80" y="1220" width="180" height="90" as="geometry" />
        </mxCell>
        <mxCell id="J2W_DL_MIdQ7LMWqJL3--5" value="" style="shape=module;jettyWidth=8;jettyHeight=4;" vertex="1" parent="J2W_DL_MIdQ7LMWqJL3--4">
          <mxGeometry x="1" width="20" height="20" relative="1" as="geometry">
            <mxPoint x="-27" y="7" as="offset" />
          </mxGeometry>
        </mxCell>
        <mxCell id="J2W_DL_MIdQ7LMWqJL3--58" style="edgeStyle=orthogonalEdgeStyle;rounded=0;orthogonalLoop=1;jettySize=auto;html=1;exitX=0.5;exitY=1;exitDx=0;exitDy=0;entryX=0.5;entryY=0;entryDx=0;entryDy=0;" edge="1" parent="1" source="J2W_DL_MIdQ7LMWqJL3--6" target="J2W_DL_MIdQ7LMWqJL3--13">
          <mxGeometry relative="1" as="geometry" />
        </mxCell>
        <mxCell id="J2W_DL_MIdQ7LMWqJL3--65" style="edgeStyle=orthogonalEdgeStyle;rounded=0;orthogonalLoop=1;jettySize=auto;html=1;exitX=0.25;exitY=0;exitDx=0;exitDy=0;entryX=0.789;entryY=0.989;entryDx=0;entryDy=0;entryPerimeter=0;" edge="1" parent="1" source="J2W_DL_MIdQ7LMWqJL3--10" target="J2W_DL_MIdQ7LMWqJL3--6">
          <mxGeometry relative="1" as="geometry" />
        </mxCell>
        <mxCell id="J2W_DL_MIdQ7LMWqJL3--6" value="&lt;b&gt;БД приложения&lt;/b&gt;" style="html=1;dropTarget=0;whiteSpace=wrap;" vertex="1" parent="1">
          <mxGeometry x="390" y="1220" width="180" height="90" as="geometry" />
        </mxCell>
        <mxCell id="J2W_DL_MIdQ7LMWqJL3--7" value="" style="shape=module;jettyWidth=8;jettyHeight=4;" vertex="1" parent="J2W_DL_MIdQ7LMWqJL3--6">
          <mxGeometry x="1" width="20" height="20" relative="1" as="geometry">
            <mxPoint x="-27" y="7" as="offset" />
          </mxGeometry>
        </mxCell>
        <mxCell id="J2W_DL_MIdQ7LMWqJL3--52" style="edgeStyle=orthogonalEdgeStyle;rounded=0;orthogonalLoop=1;jettySize=auto;html=1;exitX=0.5;exitY=1;exitDx=0;exitDy=0;entryX=0.5;entryY=0;entryDx=0;entryDy=0;" edge="1" parent="1" source="J2W_DL_MIdQ7LMWqJL3--8" target="J2W_DL_MIdQ7LMWqJL3--19">
          <mxGeometry relative="1" as="geometry" />
        </mxCell>
        <mxCell id="J2W_DL_MIdQ7LMWqJL3--8" value="&lt;b&gt;Компонент получения&lt;br&gt;профиля активности&lt;/b&gt;&lt;div&gt;&lt;b&gt;клиента&lt;/b&gt;&lt;/div&gt;" style="html=1;dropTarget=0;whiteSpace=wrap;" vertex="1" parent="1">
          <mxGeometry x="80" y="1400" width="180" height="90" as="geometry" />
        </mxCell>
        <mxCell id="J2W_DL_MIdQ7LMWqJL3--9" value="" style="shape=module;jettyWidth=8;jettyHeight=4;" vertex="1" parent="J2W_DL_MIdQ7LMWqJL3--8">
          <mxGeometry x="1" width="20" height="20" relative="1" as="geometry">
            <mxPoint x="-27" y="7" as="offset" />
          </mxGeometry>
        </mxCell>
        <mxCell id="J2W_DL_MIdQ7LMWqJL3--10" value="&lt;b&gt;Компонент управления&lt;br&gt;рекомендациями&lt;/b&gt;" style="html=1;dropTarget=0;whiteSpace=wrap;" vertex="1" parent="1">
          <mxGeometry x="620" y="1400" width="180" height="90" as="geometry" />
        </mxCell>
        <mxCell id="J2W_DL_MIdQ7LMWqJL3--11" value="" style="shape=module;jettyWidth=8;jettyHeight=4;" vertex="1" parent="J2W_DL_MIdQ7LMWqJL3--10">
          <mxGeometry x="1" width="20" height="20" relative="1" as="geometry">
            <mxPoint x="-27" y="7" as="offset" />
          </mxGeometry>
        </mxCell>
        <mxCell id="J2W_DL_MIdQ7LMWqJL3--13" value="&lt;b&gt;Построитель&lt;br&gt;динамических правил&lt;/b&gt;" style="html=1;dropTarget=0;whiteSpace=wrap;" vertex="1" parent="1">
          <mxGeometry x="390" y="1400" width="180" height="90" as="geometry" />
        </mxCell>
        <mxCell id="J2W_DL_MIdQ7LMWqJL3--14" value="" style="shape=module;jettyWidth=8;jettyHeight=4;" vertex="1" parent="J2W_DL_MIdQ7LMWqJL3--13">
          <mxGeometry x="1" width="20" height="20" relative="1" as="geometry">
            <mxPoint x="-27" y="7" as="offset" />
          </mxGeometry>
        </mxCell>
        <mxCell id="J2W_DL_MIdQ7LMWqJL3--54" style="edgeStyle=orthogonalEdgeStyle;rounded=0;orthogonalLoop=1;jettySize=auto;html=1;exitX=0;exitY=0.5;exitDx=0;exitDy=0;entryX=1;entryY=0.5;entryDx=0;entryDy=0;" edge="1" parent="1" source="J2W_DL_MIdQ7LMWqJL3--15" target="J2W_DL_MIdQ7LMWqJL3--19">
          <mxGeometry relative="1" as="geometry" />
        </mxCell>
        <mxCell id="J2W_DL_MIdQ7LMWqJL3--15" value="&lt;b&gt;Статические правила&lt;/b&gt;" style="html=1;dropTarget=0;whiteSpace=wrap;" vertex="1" parent="1">
          <mxGeometry x="620" y="1530" width="180" height="90" as="geometry" />
        </mxCell>
        <mxCell id="J2W_DL_MIdQ7LMWqJL3--16" value="" style="shape=module;jettyWidth=8;jettyHeight=4;" vertex="1" parent="J2W_DL_MIdQ7LMWqJL3--15">
          <mxGeometry x="1" width="20" height="20" relative="1" as="geometry">
            <mxPoint x="-27" y="7" as="offset" />
          </mxGeometry>
        </mxCell>
        <mxCell id="J2W_DL_MIdQ7LMWqJL3--19" value="&lt;b&gt;Фильтр рекомендаций&lt;/b&gt;" style="html=1;dropTarget=0;whiteSpace=wrap;" vertex="1" parent="1">
          <mxGeometry x="270" y="1640" width="180" height="90" as="geometry" />
        </mxCell>
        <mxCell id="J2W_DL_MIdQ7LMWqJL3--20" value="" style="shape=module;jettyWidth=8;jettyHeight=4;" vertex="1" parent="J2W_DL_MIdQ7LMWqJL3--19">
          <mxGeometry x="1" width="20" height="20" relative="1" as="geometry">
            <mxPoint x="-27" y="7" as="offset" />
          </mxGeometry>
        </mxCell>
        <mxCell id="J2W_DL_MIdQ7LMWqJL3--40" value="" style="ellipse;whiteSpace=wrap;html=1;align=center;aspect=fixed;fillColor=none;strokeColor=none;resizable=0;perimeter=centerPerimeter;rotatable=0;allowArrows=0;points=[];outlineConnect=1;" vertex="1" parent="1">
          <mxGeometry x="400" y="1360" width="10" height="10" as="geometry" />
        </mxCell>
        <mxCell id="J2W_DL_MIdQ7LMWqJL3--53" style="edgeStyle=orthogonalEdgeStyle;rounded=0;orthogonalLoop=1;jettySize=auto;html=1;exitX=0.5;exitY=1;exitDx=0;exitDy=0;entryX=0.806;entryY=0.022;entryDx=0;entryDy=0;entryPerimeter=0;" edge="1" parent="1" source="J2W_DL_MIdQ7LMWqJL3--13" target="J2W_DL_MIdQ7LMWqJL3--19">
          <mxGeometry relative="1" as="geometry" />
        </mxCell>
        <mxCell id="J2W_DL_MIdQ7LMWqJL3--56" value="" style="ellipse;whiteSpace=wrap;html=1;align=center;aspect=fixed;fillColor=none;strokeColor=none;resizable=0;perimeter=centerPerimeter;rotatable=0;allowArrows=0;points=[];outlineConnect=1;" vertex="1" parent="1">
          <mxGeometry x="720" y="1400" width="10" height="10" as="geometry" />
        </mxCell>
        <mxCell id="J2W_DL_MIdQ7LMWqJL3--70" value="Actor" style="shape=umlActor;verticalLabelPosition=bottom;verticalAlign=top;html=1;" vertex="1" parent="1">
          <mxGeometry x="730" y="1235" width="30" height="60" as="geometry" />
        </mxCell>
        <mxCell id="J2W_DL_MIdQ7LMWqJL3--73" style="edgeStyle=orthogonalEdgeStyle;rounded=0;orthogonalLoop=1;jettySize=auto;html=1;entryX=0.694;entryY=-0.011;entryDx=0;entryDy=0;entryPerimeter=0;" edge="1" parent="1" source="J2W_DL_MIdQ7LMWqJL3--70" target="J2W_DL_MIdQ7LMWqJL3--10">
          <mxGeometry relative="1" as="geometry" />
        </mxCell>
        <mxCell id="J2W_DL_MIdQ7LMWqJL3--77" value="Actor" style="shape=umlActor;verticalLabelPosition=bottom;verticalAlign=top;html=1;" vertex="1" parent="1">
          <mxGeometry x="70" y="1655" width="30" height="60" as="geometry" />
        </mxCell>
        <mxCell id="J2W_DL_MIdQ7LMWqJL3--78" style="edgeStyle=orthogonalEdgeStyle;rounded=0;orthogonalLoop=1;jettySize=auto;html=1;exitX=0;exitY=0.5;exitDx=0;exitDy=0;" edge="1" parent="1" source="J2W_DL_MIdQ7LMWqJL3--19" target="J2W_DL_MIdQ7LMWqJL3--77">
          <mxGeometry relative="1" as="geometry" />
        </mxCell>
      </root>
    </mxGraphModel>
  </diagram>
</mxfile>
